<?xml version="1.0" standalone="no"?>
<!DOCTYPE svg PUBLIC "-//W3C//DTD SVG 20010904//EN"
 "http://www.w3.org/TR/2001/REC-SVG-20010904/DTD/svg10.dtd">
<svg version="1.0" xmlns="http://www.w3.org/2000/svg"
 width="1053.000000pt" height="1038.000000pt" viewBox="0 0 1053.000000 1038.000000"
 preserveAspectRatio="xMidYMid meet">
<metadata>
Created by potrace 1.10, written by Peter Selinger 2001-2011
</metadata>
<g transform="translate(0.000000,1038.000000) scale(0.100000,-0.100000)"
fill="#ffffff" stroke="none">
<path d="M4435 9229 c-151 -23 -235 -60 -323 -143 l-69 -66 -100 0 c-81 0
-110 -4 -149 -21 -67 -30 -156 -93 -185 -132 -42 -56 -109 -188 -109 -215 0
-9 -7 -39 -15 -66 -17 -57 -20 -162 -4 -203 5 -15 16 -60 24 -99 14 -73 6
-145 -22 -199 -5 -11 -20 -42 -33 -70 -13 -27 -27 -57 -32 -65 -9 -17 -12 -24
-44 -107 -13 -34 -24 -70 -24 -81 0 -11 -7 -39 -15 -63 -12 -32 -16 -89 -17
-211 -1 -184 3 -201 63 -237 39 -24 25 -35 -66 -56 -37 -9 -84 -25 -104 -35
-20 -10 -43 -22 -51 -25 -8 -3 -33 -16 -55 -30 -22 -13 -50 -29 -62 -34 -38
-18 -194 -173 -232 -231 -52 -82 -121 -216 -121 -237 0 -11 -7 -28 -15 -39 -8
-10 -15 -33 -15 -51 0 -18 -8 -54 -17 -80 -16 -43 -18 -92 -16 -488 1 -355 4
-457 17 -529 9 -49 16 -142 16 -211 0 -112 21 -302 35 -326 23 -36 184 -102
236 -97 44 4 49 33 18 91 -20 38 -22 56 -22 192 0 137 2 154 24 201 41 87 183
174 285 174 33 0 49 6 66 25 35 38 102 177 114 235 3 19 10 40 16 46 5 7 12
36 15 65 3 29 12 64 20 78 7 15 13 46 13 71 0 25 7 86 16 135 20 117 21 244 0
325 -8 36 -16 81 -16 100 0 47 -12 64 -39 55 -28 -9 -41 -43 -41 -110 0 -30
-8 -76 -19 -102 -10 -26 -22 -68 -26 -92 -4 -24 -14 -59 -21 -77 -8 -18 -14
-46 -14 -61 0 -15 -7 -41 -15 -57 -8 -15 -15 -35 -15 -44 0 -23 -40 -101 -81
-158 -46 -62 -87 -101 -161 -151 -82 -55 -183 -147 -227 -207 -43 -59 -81
-130 -81 -151 0 -21 -17 -19 -28 3 -13 24 -27 373 -26 667 0 258 9 339 58 515
16 56 22 71 60 150 24 50 128 194 163 225 54 48 228 165 246 165 7 1 30 9 52
20 22 11 50 19 62 20 13 0 40 6 60 14 36 13 215 38 368 51 68 6 142 32 178 64
46 39 72 181 71 391 -1 114 -3 130 -27 180 -15 30 -43 69 -64 85 -64 52 -133
127 -133 144 -1 9 -8 34 -16 56 -18 49 -37 210 -28 248 5 23 10 28 32 25 23
-3 30 -12 48 -66 24 -71 36 -87 58 -79 12 5 16 22 16 75 0 68 0 69 39 100 43
35 98 65 176 99 28 12 75 44 107 72 31 28 64 51 75 51 10 0 38 7 63 16 58 20
177 22 212 3 14 -8 48 -25 74 -39 46 -25 187 -168 236 -240 25 -37 83 -152
118 -235 21 -49 60 -307 60 -396 0 -25 -6 -86 -14 -135 -8 -49 -20 -135 -26
-191 -7 -56 -20 -116 -29 -132 -9 -17 -66 -65 -131 -111 l-115 -81 -90 4 c-82
4 -97 8 -165 44 -122 66 -191 116 -270 198 -100 103 -93 94 -114 143 -25 56
-42 70 -62 50 -13 -13 -14 -22 -4 -56 7 -27 9 -96 4 -199 -8 -213 16 -384 65
-459 29 -44 146 -144 168 -144 5 0 35 -23 66 -51 l57 -51 0 -111 c0 -76 5
-121 14 -139 8 -15 17 -42 20 -60 18 -93 61 -205 104 -268 30 -44 39 -50 83
-50 57 0 103 65 116 163 6 48 20 56 34 20 6 -15 15 -36 20 -45 5 -10 9 -25 9
-33 0 -8 8 -41 19 -72 47 -148 61 -203 61 -244 0 -24 6 -56 14 -70 7 -14 16
-43 20 -65 6 -37 13 -54 54 -140 24 -51 88 -115 147 -146 28 -14 49 -30 48
-34 -1 -5 -21 -12 -43 -15 -22 -3 -46 -11 -52 -17 -7 -7 -18 -12 -25 -12 -8 0
-37 -17 -66 -38 -62 -45 -137 -82 -164 -82 -11 0 -37 -7 -56 -15 -49 -20 -293
-21 -363 -1 -27 8 -76 17 -108 20 -33 4 -65 11 -71 16 -6 5 -39 13 -74 19 -35
6 -68 14 -74 20 -7 5 -30 12 -52 16 -22 4 -47 11 -56 16 -16 8 -130 42 -204
60 -22 5 -54 16 -72 24 -17 8 -38 15 -46 15 -9 0 -28 6 -44 14 -67 33 -166 66
-201 66 -68 -1 -253 -127 -283 -195 -5 -11 -23 -42 -40 -69 -17 -27 -35 -74
-41 -105 -12 -68 -5 -179 13 -196 25 -22 165 -37 447 -46 153 -4 300 -13 327
-18 28 -6 108 -15 179 -21 71 -5 148 -15 170 -21 23 -6 95 -14 161 -18 100 -5
119 -8 115 -21 -2 -8 -4 -33 -3 -55 1 -29 7 -44 24 -55 32 -21 86 -40 141 -50
26 -5 55 -13 65 -18 10 -5 37 -13 61 -17 24 -4 56 -13 70 -21 15 -8 38 -14 52
-14 13 0 47 -9 75 -19 78 -30 183 -61 208 -61 12 0 35 -7 51 -15 33 -17 112
-23 126 -9 5 5 14 43 20 84 6 41 18 103 26 137 8 34 14 81 14 105 0 25 7 67
15 94 8 27 19 85 24 129 6 44 15 98 20 120 5 22 15 72 21 110 6 39 17 113 25
165 9 52 22 115 30 139 8 25 15 66 15 93 0 26 6 65 14 85 8 21 16 71 19 110 2
40 9 79 15 86 6 7 14 44 17 82 12 129 69 234 148 272 41 20 52 20 602 12 911
-14 1126 -14 1411 -5 272 9 272 9 308 -13 53 -33 57 -47 36 -126 -32 -123 -40
-158 -50 -228 -5 -37 -14 -75 -19 -85 -4 -9 -12 -48 -16 -87 -4 -38 -11 -75
-16 -81 -5 -6 -12 -33 -15 -60 -5 -47 -24 -129 -65 -281 -10 -40 -19 -86 -19
-102 0 -17 -6 -50 -14 -73 -8 -24 -17 -72 -21 -108 -3 -36 -11 -70 -15 -75 -5
-6 -14 -42 -19 -81 -5 -38 -17 -94 -26 -124 -8 -30 -16 -75 -18 -100 -2 -41 0
-45 22 -48 27 -4 41 12 41 49 0 15 7 43 15 62 8 20 15 53 15 74 1 21 8 56 16
78 8 22 21 72 28 110 7 39 18 90 24 115 17 70 32 149 42 218 5 34 16 82 25
107 8 25 15 64 15 86 0 22 5 49 10 59 10 18 32 112 60 250 6 30 16 73 21 95 6
22 14 70 19 107 5 37 14 76 20 88 6 11 12 48 13 83 2 68 -15 102 -71 139 -25
17 -91 18 -1099 18 -589 0 -1078 3 -1087 6 -9 3 -16 14 -16 23 0 9 -15 32 -34
50 -25 24 -42 56 -61 116 -33 101 -31 119 14 123 31 3 70 34 71 56 0 5 8 27
19 50 10 23 24 61 30 86 7 25 16 61 21 80 26 97 3 233 -64 370 -31 65 -156
210 -181 210 -7 0 -18 6 -24 14 -6 7 -25 16 -41 20 -17 3 -30 12 -30 20 0 7
13 67 30 132 28 112 30 131 30 309 0 156 -5 218 -25 344 -14 84 -32 166 -40
182 -8 15 -15 37 -15 49 0 11 -9 37 -20 57 -11 21 -20 43 -20 49 0 6 -15 41
-34 77 -32 61 -52 89 -153 221 -55 70 -169 169 -255 221 -84 50 -129 75 -139
75 -5 0 -20 6 -32 12 -80 45 -343 70 -492 47z m322 -70 c48 -12 104 -27 123
-34 91 -34 146 -58 161 -71 8 -8 19 -14 22 -14 8 0 155 -115 177 -139 9 -9 40
-45 69 -80 29 -35 59 -71 67 -78 26 -26 151 -298 158 -343 4 -24 11 -50 17
-56 6 -7 15 -75 21 -151 24 -294 8 -657 -31 -696 -17 -18 -20 -16 -93 41 -55
44 -91 84 -132 145 -69 103 -106 172 -106 196 0 9 -4 21 -9 26 -14 14 -41 146
-51 250 -5 50 -19 122 -31 160 -28 88 -27 87 -37 105 -5 8 -20 37 -33 64 -30
63 -39 74 -121 161 -53 55 -86 80 -150 112 -154 76 -157 76 -270 81 -100 4
-109 3 -155 -22 -53 -30 -92 -63 -109 -92 -21 -37 -102 -67 -219 -79 -121 -14
-222 -32 -245 -46 -8 -5 -28 -15 -45 -22 -16 -8 -37 -23 -47 -33 -27 -31 -68
-111 -68 -133 0 -11 -6 -38 -14 -58 -8 -21 -17 -55 -21 -75 -11 -68 -22 -40
-31 79 -7 80 -6 143 2 198 12 88 40 181 60 206 8 8 14 20 14 25 0 13 87 95
124 119 60 37 169 57 218 39 52 -18 89 -3 149 61 74 80 126 106 294 150 117
30 226 32 342 4z m-162 -394 c22 -8 46 -15 54 -15 42 0 177 -88 246 -158 51
-53 142 -204 155 -256 6 -23 17 -61 25 -86 9 -26 15 -81 15 -128 0 -46 5 -93
11 -104 7 -12 17 -44 24 -72 19 -73 38 -122 83 -209 72 -139 148 -225 242
-275 30 -16 56 -36 58 -43 1 -8 -16 -34 -38 -59 -94 -104 -185 -264 -197 -345
-2 -16 -11 -71 -19 -121 -16 -94 -16 -96 15 -276 5 -31 15 -66 20 -77 12 -22
15 -61 5 -61 -16 0 -61 78 -90 155 -18 48 -40 154 -59 290 -8 55 -21 120 -29
144 -9 24 -16 54 -16 68 0 13 -10 45 -21 71 -19 42 -21 57 -15 146 4 55 13
109 19 120 8 15 12 91 11 256 -1 192 -4 244 -17 283 -10 26 -17 61 -17 78 0
34 -28 122 -61 189 -76 158 -242 346 -361 411 -63 33 -63 33 -190 32 -76 -1
-128 2 -128 8 0 5 8 12 18 15 9 3 31 12 47 19 40 18 160 18 210 0z m-467 -177
c-3 -7 -20 -14 -39 -16 -19 -2 -41 -9 -49 -16 -8 -8 -27 -16 -42 -20 -15 -3
-54 -31 -86 -61 -61 -56 -90 -67 -112 -40 -7 8 -18 15 -25 15 -27 0 -72 -34
-85 -64 -13 -29 -14 -30 -23 -8 -9 19 -3 31 34 79 24 31 60 65 79 76 19 11 86
28 149 39 63 10 117 21 120 23 2 3 22 5 44 5 26 0 37 -4 35 -12z m-442 -359
c7 -88 40 -209 71 -256 21 -32 64 -72 78 -73 16 0 75 -63 75 -79 0 -9 8 -29
17 -46 12 -23 17 -69 21 -209 4 -169 3 -180 -18 -223 -13 -25 -33 -49 -49 -56
-14 -7 -32 -17 -39 -24 -15 -15 -15 -15 -36 -7 -20 8 -11 24 13 24 10 0 31 18
47 41 53 77 32 205 -57 337 -16 24 -29 46 -30 50 0 4 -20 34 -45 67 -24 33
-58 87 -75 120 l-32 60 -1 172 c-1 159 1 173 19 191 27 26 33 14 41 -89z m-81
-378 c16 -28 107 -159 142 -206 4 -6 19 -33 32 -60 13 -28 31 -63 40 -80 8
-17 15 -56 16 -89 0 -55 -2 -60 -37 -90 -33 -28 -47 -32 -135 -41 -54 -5 -131
-9 -171 -7 l-72 4 -20 38 c-16 31 -20 59 -20 132 1 51 5 113 11 138 5 25 14
78 19 119 5 40 13 78 18 85 6 6 13 27 17 46 4 19 15 54 26 78 27 61 56 125 63
142 3 8 10 22 15 30 6 8 13 29 18 45 5 21 9 -14 13 -110 5 -114 9 -146 25
-174z m816 -744 c63 -31 121 -57 129 -57 8 -1 24 -7 34 -15 44 -33 147 -11
241 50 49 32 56 38 97 79 22 21 43 35 48 30 5 -5 6 -85 3 -177 l-6 -169 -71
-55 c-75 -58 -136 -121 -136 -139 0 -6 -8 -22 -19 -35 -10 -13 -21 -42 -24
-64 -4 -22 -11 -59 -15 -82 -5 -23 -5 -62 0 -90 21 -118 21 -132 -1 -200 -28
-87 -71 -167 -93 -171 -38 -7 -135 276 -149 433 -11 129 -16 150 -51 201 -26
40 -111 104 -136 104 -7 0 -12 3 -12 8 0 4 -13 15 -30 24 -16 9 -49 43 -73 76
l-44 60 -7 162 c-4 89 -13 189 -21 222 -7 33 -12 65 -9 72 3 7 54 -36 118 -99
101 -99 124 -116 227 -168z m1246 231 c117 -96 186 -209 202 -332 15 -120 -13
-338 -48 -379 -13 -14 -43 19 -74 83 -34 69 -44 77 -69 58 -15 -12 -14 -20 4
-103 11 -49 23 -129 28 -176 8 -97 36 -168 76 -194 37 -24 21 -35 -50 -35 -44
0 -67 -5 -76 -15 -7 -8 -18 -15 -24 -15 -16 -1 -57 -39 -97 -90 -45 -57 -78
-149 -85 -237 -4 -37 -12 -90 -20 -117 -8 -27 -14 -73 -14 -103 0 -29 -6 -70
-14 -90 -8 -21 -17 -72 -21 -113 -7 -74 -26 -130 -46 -130 -13 0 -137 65 -195
102 -42 27 -84 82 -84 111 0 8 -7 28 -15 43 -8 16 -15 48 -15 72 0 23 -7 59
-15 79 -8 19 -15 44 -15 55 0 18 -27 91 -66 173 -7 17 -18 41 -24 55 -5 14
-14 33 -20 43 -5 9 -14 25 -19 35 -5 9 -30 50 -55 90 l-46 73 0 129 c0 126 1
132 30 184 28 49 148 176 167 176 4 0 21 11 36 25 l27 26 0 169 c0 93 4 171 9
174 13 8 21 -19 21 -72 0 -26 7 -72 15 -102 8 -30 15 -84 15 -120 0 -125 64
-312 133 -388 10 -10 17 -23 17 -28 0 -5 8 -17 18 -25 9 -9 52 -53 96 -98 64
-67 83 -82 105 -79 36 4 37 30 3 70 -37 41 -102 161 -102 186 0 11 -8 37 -17
58 -25 57 -25 381 0 438 9 21 17 47 17 58 0 32 72 152 130 218 17 19 38 52 47
73 24 52 50 49 130 -15z m-2222 -1130 c-13 -207 -37 -335 -90 -473 -15 -38
-30 -83 -35 -100 -4 -16 -15 -43 -24 -60 -9 -16 -16 -34 -16 -39 0 -28 -35
-46 -87 -46 -80 0 -196 -53 -241 -110 -99 -125 -132 -303 -83 -444 18 -51 19
-62 7 -74 -11 -12 -19 -11 -52 6 -75 38 -76 40 -78 234 -1 150 1 177 17 201 9
14 17 33 17 41 0 8 6 21 14 28 7 8 21 27 29 43 30 55 226 245 253 245 13 0
132 101 157 133 54 70 130 234 143 307 3 19 12 54 20 78 8 23 14 58 14 77 0
44 9 65 27 65 14 0 15 -15 8 -112z m2125 -158 c0 -25 -18 -36 -26 -16 -8 21 3
49 16 41 5 -3 10 -15 10 -25z m-41 -142 c0 -45 -3 -57 -9 -43 -16 36 -11 105
7 105 2 0 3 -28 2 -62z m-619 7 c0 -37 -14 -54 -24 -29 -8 21 -8 59 0 67 13
13 24 -5 24 -38z m30 -90 c0 -13 12 -70 26 -125 14 -56 24 -104 20 -107 -14
-14 -34 10 -44 54 -6 26 -15 66 -21 88 -12 45 -14 108 -5 118 12 11 24 -3 24
-28z m80 -306 c0 -17 -4 -28 -10 -24 -5 3 -10 17 -10 31 0 13 5 24 10 24 6 0
10 -14 10 -31z m117 -125 c15 -12 38 -24 50 -28 11 -4 27 -13 33 -21 7 -9 29
-15 51 -15 46 0 52 -16 9 -25 -19 -4 -40 -1 -57 9 -15 8 -39 17 -53 20 -41 8
-140 103 -140 133 0 26 0 26 39 -13 22 -21 52 -48 68 -60z m279 -48 c7 -28 -2
-49 -17 -41 -12 8 -12 65 1 65 5 0 12 -11 16 -24z m-1981 -36 c22 -11 51 -19
66 -20 14 0 29 -4 35 -9 5 -5 27 -16 49 -25 22 -8 72 -26 110 -41 39 -15 93
-31 120 -37 28 -5 55 -13 60 -18 6 -4 31 -10 58 -13 26 -4 61 -13 77 -22 16
-8 43 -15 60 -15 17 0 41 -5 52 -11 32 -17 246 -69 286 -69 19 0 65 -5 100
-11 143 -25 334 24 492 126 100 65 207 103 312 112 58 5 68 3 74 -12 7 -18 -7
-131 -25 -200 -10 -39 -17 -80 -47 -280 -8 -55 -22 -117 -29 -138 -8 -20 -16
-59 -16 -85 -2 -54 -9 -89 -25 -116 -12 -19 -18 -19 -119 16 -16 5 -53 14 -81
19 -28 5 -67 16 -87 24 -20 8 -48 15 -61 15 -14 0 -40 6 -58 14 -18 8 -80 26
-138 41 -191 49 -220 59 -220 71 0 7 15 15 33 18 52 8 286 18 497 22 107 1
210 6 228 9 29 5 32 9 32 40 0 26 -9 43 -40 75 l-39 40 -83 0 c-55 0 -93 -5
-113 -16 -16 -8 -50 -18 -75 -21 -25 -3 -54 -11 -65 -18 -12 -7 -62 -18 -113
-25 -96 -13 -230 -6 -442 25 -52 8 -141 16 -197 19 -56 3 -114 11 -130 17 -15
6 -129 15 -253 20 -124 5 -261 14 -305 19 -44 5 -135 9 -202 9 -106 1 -124 3
-132 19 -13 24 3 160 23 197 9 17 16 35 16 42 0 14 152 173 166 173 5 1 27 9
49 20 22 11 45 19 50 19 6 0 28 -8 50 -19z m1750 -550 c11 -12 15 -24 9 -29
-5 -5 -67 -10 -139 -12 -106 -3 -130 -1 -130 10 0 18 112 48 186 50 45 1 60
-3 74 -19z"/>
<path d="M6073 3669 c-54 -21 -77 -45 -85 -94 -3 -16 -10 -43 -16 -60 -6 -16
-16 -57 -22 -90 -6 -33 -18 -87 -26 -120 -8 -33 -19 -80 -24 -105 -20 -106
-31 -130 -66 -145 -39 -16 -43 -37 -13 -59 17 -12 20 -21 16 -48 -8 -43 -40
-185 -62 -268 -9 -36 -20 -84 -24 -107 -4 -23 -13 -49 -20 -57 -7 -8 -11 -25
-9 -38 3 -20 9 -23 58 -26 91 -5 84 -18 135 283 23 142 24 146 37 218 l12 67
37 0 c20 0 42 -7 49 -15 7 -8 18 -15 24 -15 29 0 126 -126 126 -163 0 -14 7
-31 16 -38 13 -11 15 -28 11 -99 -3 -47 -12 -111 -20 -143 -15 -57 -15 -58 8
-73 19 -12 31 -13 63 -5 l39 11 17 113 c19 133 43 250 58 292 6 17 13 48 15
70 7 53 15 61 53 45 29 -12 33 -11 66 21 23 22 34 42 34 61 0 27 -2 28 -50 28
l-50 0 7 48 c3 26 10 58 16 72 27 68 46 127 47 146 0 11 7 29 15 40 8 10 15
30 15 42 0 13 6 36 14 50 34 65 57 135 48 144 -16 16 -117 0 -134 -20 -22 -25
-48 -98 -48 -135 -1 -17 -7 -43 -15 -57 -8 -14 -14 -40 -15 -58 0 -18 -5 -43
-12 -55 -6 -12 -15 -42 -19 -67 -5 -25 -13 -67 -20 -95 l-12 -50 -145 -2
c-109 -2 -151 -7 -168 -18 -13 -8 -28 -15 -34 -15 -15 0 -12 64 4 102 8 18 22
60 30 93 9 33 21 74 27 90 6 17 14 50 18 75 4 25 13 55 19 67 7 12 12 32 12
45 0 13 6 32 14 43 19 28 25 73 12 84 -7 6 -31 2 -63 -10z m214 -630 c33 1 43
-26 27 -72 -8 -22 -14 -52 -14 -66 0 -15 -6 -36 -14 -46 -12 -17 -15 -14 -39
36 -14 30 -43 74 -65 99 -23 24 -38 48 -35 53 3 6 30 6 62 2 31 -4 66 -7 78
-6z"/>
<path d="M2134 3662 c-27 -21 -44 -54 -44 -84 0 -13 -7 -32 -15 -42 -8 -11
-15 -28 -15 -38 0 -20 -37 -144 -51 -170 -5 -10 -9 -29 -9 -44 0 -14 -5 -35
-12 -47 -6 -12 -15 -42 -19 -67 -14 -86 -31 -145 -47 -163 -12 -14 -16 -34
-14 -77 2 -39 -2 -69 -12 -89 -9 -16 -16 -44 -16 -61 0 -17 -6 -43 -14 -58 -7
-15 -16 -52 -20 -82 -3 -30 -13 -74 -21 -98 -21 -61 -12 -92 29 -92 17 0 40 7
50 15 11 8 30 15 43 15 22 0 23 3 23 75 0 41 5 84 10 97 6 13 15 57 20 98 5
41 15 105 21 143 l12 67 86 0 c84 -1 87 -1 120 -34 28 -29 33 -40 28 -68 -8
-51 -24 -108 -40 -142 -41 -88 -60 -188 -46 -239 10 -38 74 -117 94 -117 7 0
18 -7 25 -15 9 -11 33 -15 90 -15 57 0 81 4 90 15 7 8 18 15 26 15 13 0 34 30
34 49 0 14 -55 14 -95 0 -41 -15 -77 -6 -117 30 -31 27 -33 33 -31 91 1 40 7
67 17 79 9 10 16 25 16 35 0 9 6 29 14 44 17 35 46 161 46 204 0 39 -27 83
-66 109 -21 14 -47 19 -96 19 -72 0 -96 14 -51 30 65 24 102 49 181 125 151
143 233 294 236 435 1 64 1 65 -26 68 -15 2 -38 -4 -50 -12 -12 -9 -33 -16
-46 -16 -22 0 -23 -3 -17 -27 5 -16 8 -35 7 -43 -2 -35 -20 -102 -31 -113 -6
-6 -11 -19 -11 -28 0 -9 -7 -22 -15 -29 -8 -7 -15 -19 -15 -26 0 -14 -35 -68
-88 -133 -35 -44 -113 -119 -179 -170 -42 -33 -53 -38 -63 -26 -8 10 -4 34 20
102 18 48 35 108 40 133 9 52 55 191 76 233 8 16 14 34 14 40 0 6 6 18 14 26
8 9 17 33 21 54 l7 37 -48 0 c-31 0 -57 -7 -70 -18z"/>
<path d="M8252 3622 c-17 -16 -34 -42 -37 -58 -4 -16 -11 -40 -17 -54 -5 -14
-14 -45 -18 -70 -9 -48 -23 -102 -46 -186 -8 -28 -14 -65 -14 -82 0 -48 -16
-46 -50 7 -36 55 -65 66 -124 50 -62 -17 -186 -139 -186 -183 0 -24 -62 -54
-115 -56 -79 -3 -78 -3 -70 27 3 15 10 30 14 33 11 8 47 82 55 113 9 39 -9 67
-43 67 -63 0 -140 -124 -141 -226 0 -24 -6 -47 -15 -54 -8 -7 -15 -17 -15 -22
0 -6 -13 -27 -30 -48 -16 -21 -30 -42 -30 -46 0 -16 -48 -54 -67 -54 -17 0
-22 11 -31 68 -7 37 -12 81 -13 97 0 42 25 166 40 193 20 37 11 77 -19 80 -56
6 -120 -65 -120 -134 0 -28 -34 -63 -63 -64 -10 0 -20 -7 -23 -15 -4 -9 -19
-15 -35 -15 l-29 0 0 70 c0 54 -4 72 -15 76 -8 4 -15 10 -15 15 0 12 -37 49
-49 49 -5 0 -14 7 -21 15 -21 25 -103 19 -151 -10 -36 -24 -109 -119 -109
-145 0 -6 -8 -23 -17 -37 -14 -22 -18 -49 -18 -138 0 -98 3 -114 23 -147 14
-22 42 -47 68 -60 44 -22 45 -22 97 -3 95 33 163 104 176 184 5 30 14 39 71
68 36 19 70 40 76 48 24 31 34 16 34 -51 0 -88 33 -196 72 -234 33 -34 50 -37
68 -15 7 8 18 15 25 15 11 0 31 20 109 110 12 14 37 49 56 77 l35 52 72 1 c39
0 75 5 78 10 3 6 17 10 31 10 28 0 31 -21 9 -60 -28 -48 -13 -118 39 -184 19
-24 120 -24 146 -1 9 8 21 15 27 15 6 0 27 20 47 45 41 49 56 56 56 25 0 -34
30 -94 55 -113 21 -15 31 -16 62 -8 49 13 157 102 190 156 12 20 13 20 33 -4
11 -13 20 -32 20 -43 0 -37 46 -83 104 -102 55 -19 57 -19 114 -1 31 11 63 23
70 28 7 5 30 19 53 31 46 25 209 181 209 201 0 7 7 15 15 19 17 6 21 61 5 71
-5 3 -58 -43 -117 -102 -116 -116 -148 -143 -173 -143 -8 0 -24 -7 -34 -15
-11 -8 -38 -15 -61 -15 -56 0 -98 42 -93 91 2 28 13 40 63 76 33 23 65 42 70
42 22 2 103 98 122 146 28 68 21 108 -23 136 -34 20 -35 20 -89 4 -58 -19
-163 -100 -178 -139 -4 -11 -19 -35 -32 -53 -14 -17 -25 -39 -25 -48 0 -52
-70 -140 -176 -223 -48 -37 -67 -40 -87 -12 -10 14 -11 36 -6 91 8 70 20 103
59 164 19 28 22 35 35 68 3 6 9 19 13 27 24 43 42 83 42 95 0 7 7 18 15 25 8
7 15 27 15 45 0 18 7 38 15 45 10 8 15 30 15 62 0 27 4 57 9 66 4 9 11 43 15
75 6 55 5 60 -23 88 -16 16 -34 29 -39 29 -6 0 -24 -13 -40 -28z m-238 -468
c9 -8 17 -21 17 -27 4 -35 20 -90 31 -104 11 -14 0 -80 -19 -113 -19 -31 -124
-121 -155 -133 -37 -13 -64 0 -82 41 -16 36 -16 42 0 107 9 39 23 77 30 86 8
8 14 21 14 28 0 7 23 39 51 72 55 62 83 73 113 43z m646 -4 c0 -12 -7 -35 -16
-53 -18 -36 -132 -147 -151 -147 -17 0 -16 40 2 64 8 11 15 27 15 36 0 8 21
39 46 68 35 40 52 52 75 52 23 0 29 -5 29 -20z m-1767 -10 c29 -23 42 -92 29
-150 -8 -34 -10 -35 -52 -34 -36 1 -47 6 -71 35 -42 50 -40 98 6 138 42 36 54
38 88 11z m-139 -204 c19 -36 49 -53 101 -58 44 -4 42 -28 -8 -81 -36 -39 -49
-47 -79 -47 -46 0 -54 11 -66 93 -17 110 13 164 52 93z"/>
<path d="M3737 3623 c-20 -5 -44 -56 -61 -128 -15 -65 -36 -76 -136 -69 -91 7
-130 -5 -130 -40 0 -33 23 -39 135 -39 99 1 111 -2 94 -23 -13 -16 -26 -64
-44 -166 -26 -149 -23 -143 -155 -273 -130 -129 -142 -136 -172 -112 -26 20
-36 48 -27 76 4 14 15 49 24 76 9 28 19 64 22 80 3 17 12 39 19 50 8 11 14 27
14 37 0 10 9 34 20 55 22 42 17 83 -9 83 -56 0 -130 -72 -131 -126 0 -12 -7
-38 -15 -57 -8 -20 -15 -48 -15 -62 0 -14 -4 -25 -8 -25 -5 0 -23 -19 -40 -42
-44 -61 -112 -132 -145 -153 -26 -17 -28 -17 -48 1 -23 21 -23 41 5 159 9 39
21 88 25 110 5 22 12 48 16 57 5 13 0 21 -19 29 -22 10 -26 19 -26 56 0 36 -4
45 -22 53 -13 6 -31 16 -41 22 -14 11 -23 10 -48 -4 -17 -10 -36 -18 -43 -18
-19 0 -146 -119 -146 -136 0 -8 -5 -14 -11 -14 -5 0 -25 -34 -44 -74 -40 -88
-57 -192 -41 -245 13 -43 48 -82 73 -82 41 0 103 14 114 27 6 8 17 14 24 14 6
0 26 20 44 45 18 25 36 45 42 45 5 0 9 -17 9 -37 1 -25 9 -48 24 -67 23 -27
28 -29 75 -23 62 7 85 24 153 113 71 90 78 91 78 11 0 -62 2 -66 35 -96 39
-34 75 -39 115 -16 14 8 32 18 40 22 14 7 93 85 154 152 20 23 32 29 39 22 8
-8 8 -14 -1 -23 -24 -24 -6 -123 29 -159 23 -23 78 -49 104 -49 31 0 92 47
160 124 32 36 62 66 67 66 12 0 10 -44 -3 -57 -6 -6 -15 -30 -19 -52 -7 -38
-5 -43 20 -61 55 -39 70 -25 95 87 9 37 22 93 30 123 7 30 20 82 28 115 7 33
19 70 25 82 7 12 12 37 12 55 1 18 7 44 15 58 8 14 15 41 15 60 0 19 7 46 15
60 8 14 15 41 15 60 0 19 7 46 15 60 8 14 15 39 15 55 0 17 7 41 14 54 10 19
11 31 3 48 -9 20 -18 23 -61 23 -76 0 -80 -5 -79 -104 1 -104 -8 -117 -65 -92
-20 9 -70 18 -110 19 -92 4 -101 13 -79 74 35 98 13 129 -76 106z m216 -263
c43 -4 81 -10 84 -14 3 -3 -1 -21 -9 -38 -9 -18 -21 -58 -27 -88 -20 -93 -40
-184 -48 -212 -20 -68 -217 -258 -267 -258 -8 0 -27 11 -42 23 -24 21 -27 30
-27 86 1 42 6 68 17 80 9 10 16 26 16 37 0 10 7 28 15 38 8 11 15 30 15 42 0
12 7 27 15 34 8 7 15 21 15 31 0 10 6 33 14 51 19 48 46 133 46 150 0 7 7 24
16 37 14 19 22 22 53 16 20 -4 71 -10 114 -15z m-1116 -215 c-3 -18 1 -29 14
-36 23 -12 25 -81 4 -119 -8 -14 -14 -38 -15 -53 0 -39 -23 -74 -77 -119 -99
-84 -148 -23 -106 132 13 45 89 168 122 197 37 32 65 30 58 -2z"/>
<path d="M3328 3530 c-42 -45 -47 -69 -21 -100 33 -38 84 -20 109 39 17 41 -6
100 -40 101 -5 0 -26 -18 -48 -40z"/>
<path d="M4605 3214 c-10 -8 -26 -14 -36 -14 -20 0 -32 -36 -20 -59 15 -29
-15 -157 -45 -192 -8 -8 -14 -20 -14 -26 0 -6 -7 -16 -15 -23 -8 -7 -15 -20
-15 -29 0 -18 -106 -121 -124 -121 -6 1 -21 9 -33 19 -27 23 -31 85 -9 134 8
18 16 41 19 52 3 11 17 52 31 90 14 39 26 89 26 112 0 37 -3 43 -25 49 -13 3
-41 2 -62 -3 -36 -8 -37 -10 -39 -58 -1 -47 -13 -103 -36 -170 -33 -98 -34
-214 -2 -258 23 -31 75 -57 115 -57 43 0 138 73 139 108 0 6 7 12 15 12 20 0
20 -48 0 -86 -8 -16 -15 -37 -15 -47 0 -10 -6 -30 -14 -45 -7 -15 -21 -61 -31
-102 -9 -41 -23 -90 -31 -108 -8 -18 -14 -46 -14 -61 0 -16 -7 -42 -15 -57
-20 -40 -20 -120 1 -128 27 -10 81 -7 91 7 6 6 13 39 17 72 4 33 11 74 16 90
5 17 16 68 25 115 9 47 20 99 25 115 5 17 12 57 16 90 4 33 13 72 20 87 8 15
14 41 14 58 0 18 6 46 14 63 8 18 17 48 19 67 3 19 20 79 39 132 40 112 40
151 -1 172 -22 12 -29 12 -46 0z"/>
<path d="M5065 3207 c-16 -7 -49 -31 -72 -54 -23 -24 -45 -43 -49 -43 -4 0 -4
20 -1 44 6 42 5 44 -23 50 -57 11 -99 -25 -100 -87 0 -21 -5 -47 -11 -58 -5
-11 -16 -52 -24 -92 -7 -40 -21 -97 -30 -127 -9 -30 -20 -68 -25 -85 -4 -16
-11 -37 -14 -45 -4 -9 -1 -23 6 -33 12 -16 15 -16 52 2 55 29 76 50 76 80 0
40 30 172 49 210 9 19 39 57 68 86 53 54 97 75 117 55 15 -15 9 -116 -9 -150
-8 -16 -15 -44 -15 -62 -1 -18 -7 -44 -15 -58 -17 -31 -19 -109 -2 -130 18
-23 64 -50 83 -50 39 0 113 48 184 119 70 71 170 206 170 230 0 17 -51 26 -61
10 -80 -131 -215 -272 -254 -267 -17 3 -20 10 -18 48 2 46 26 140 44 173 6 10
13 55 16 100 5 82 5 82 -27 115 -35 34 -62 39 -115 19z"/>
<path d="M2288 1553 c-26 -6 -29 -32 -26 -178 3 -122 4 -130 23 -130 17 0 20
7 22 50 1 28 2 56 2 63 1 7 17 12 44 12 24 0 47 3 50 7 14 14 -17 33 -54 33
l-39 0 0 56 0 56 46 -7 c49 -7 77 6 67 31 -4 10 -21 14 -62 13 -31 -1 -64 -3
-73 -6z"/>
<path d="M2558 1553 c-22 -3 -42 -11 -47 -21 -5 -10 -8 -78 -8 -152 2 -128 3
-135 22 -135 18 0 20 7 20 60 0 57 1 60 24 60 19 0 31 -12 56 -60 33 -61 60
-80 71 -50 4 10 -5 34 -24 61 -34 48 -33 70 4 85 19 6 24 16 24 41 0 18 -3 42
-6 53 -6 23 -63 66 -85 63 -8 -1 -31 -3 -51 -5z m62 -50 c34 -23 37 -28 32
-66 -4 -32 -4 -33 -55 -32 -57 0 -53 -6 -49 80 2 29 6 35 25 35 12 0 34 -8 47
-17z"/>
<path d="M2826 1507 c-58 -55 -61 -61 -50 -140 5 -35 16 -55 46 -86 37 -39 42
-41 96 -41 55 0 60 2 100 44 23 24 42 54 42 65 0 12 5 21 10 21 6 0 10 9 10
19 0 11 -4 23 -10 26 -5 3 -10 18 -10 33 0 25 -43 82 -63 82 -4 0 -15 7 -23
15 -9 8 -33 15 -54 15 -32 0 -47 -8 -94 -53z m151 -15 c35 -17 36 -20 37 -120
1 -58 -27 -86 -88 -85 -36 1 -49 7 -80 36 -34 33 -36 39 -30 79 5 26 18 54 36
73 15 16 28 34 28 38 0 11 56 -1 97 -21z"/>
<path d="M3464 1551 c-14 -14 0 -31 26 -31 l29 0 3 -137 c3 -130 4 -138 23
-138 19 0 20 8 23 138 l3 138 32 -6 c38 -7 70 16 45 32 -13 8 -176 12 -184 4z"/>
<path d="M3920 1553 c-34 -12 -40 -36 -40 -163 0 -85 4 -130 12 -138 14 -14
136 -16 157 -3 13 8 13 12 1 26 -11 14 -25 16 -66 12 -57 -6 -62 -2 -60 48 1
29 2 30 59 33 40 2 57 7 57 17 0 17 -31 27 -73 23 l-32 -3 -3 59 -3 59 46 -6
c56 -8 93 6 74 29 -11 14 -96 19 -129 7z"/>
<path d="M4485 1553 c-11 -3 -23 -10 -27 -17 -13 -19 -9 -271 4 -284 18 -18
143 -16 162 3 8 8 22 15 30 15 40 0 75 169 43 202 -7 7 -16 21 -20 31 -4 9
-15 20 -24 23 -10 3 -30 12 -45 20 -25 14 -82 17 -123 7z m128 -58 c32 -22 45
-49 48 -98 4 -65 -31 -102 -104 -110 -28 -4 -54 -3 -57 2 -3 5 -4 59 -2 121
l3 112 47 -7 c25 -4 55 -13 65 -20z"/>
<path d="M5272 1548 c-7 -7 -12 -21 -12 -32 0 -12 -7 -30 -15 -40 -10 -13 -12
-32 -8 -61 5 -38 3 -44 -17 -50 -27 -8 -40 7 -40 48 0 16 -7 30 -16 34 -12 4
-14 14 -10 37 9 45 -13 73 -42 57 -15 -8 -22 -21 -22 -40 0 -16 -7 -34 -15
-41 -8 -7 -15 -29 -15 -50 0 -25 -5 -40 -16 -44 -24 -9 -30 -7 -31 12 -6 64
-13 96 -20 101 -5 3 -13 19 -18 35 -6 16 -15 31 -22 33 -20 7 -26 -42 -9 -75
9 -17 16 -41 16 -54 0 -13 6 -35 14 -49 7 -14 16 -47 20 -73 7 -43 9 -46 37
-46 26 0 29 3 29 33 0 18 7 42 15 53 8 10 15 33 15 49 0 35 8 49 31 57 13 5
18 -3 23 -39 3 -25 10 -51 16 -58 5 -6 13 -29 18 -51 6 -33 12 -40 35 -42 25
-3 27 -1 27 35 0 21 6 50 14 65 8 14 17 44 21 67 4 22 13 45 21 52 18 15 18
63 1 78 -10 8 -17 7 -25 -1z"/>
<path d="M5413 1553 c-31 -6 -34 -26 -31 -178 l3 -130 80 0 c73 0 80 2 80 20
0 18 -6 20 -57 18 -61 -2 -66 2 -64 52 1 28 4 30 41 33 60 4 70 9 54 28 -8 10
-25 14 -48 12 -30 -2 -36 1 -41 21 -3 14 -4 40 -2 59 l4 34 46 -6 c48 -6 75 6
65 30 -5 14 -75 18 -130 7z"/>
<path d="M5678 1553 c-22 -3 -42 -11 -47 -21 -12 -23 -13 -250 0 -273 8 -16
22 -19 79 -19 67 0 69 1 99 37 37 45 37 51 10 98 -15 25 -18 39 -11 48 6 7 10
33 9 57 -2 38 -5 45 -24 48 -12 2 -27 10 -33 18 -7 8 -20 13 -29 12 -9 -1 -33
-3 -53 -5z m51 -39 c36 -7 55 -35 46 -64 -5 -16 -15 -20 -55 -20 -27 0 -51 4
-54 8 -9 15 6 82 19 82 7 0 27 -3 44 -6z m30 -143 c14 -8 21 -21 21 -41 0 -35
-12 -44 -67 -47 -48 -4 -60 14 -48 73 6 32 8 34 39 30 19 -2 43 -9 55 -15z"/>
<path d="M6110 1553 c-34 -12 -40 -36 -40 -163 0 -85 4 -130 12 -138 17 -17
143 -16 160 2 8 8 23 16 34 18 10 2 20 12 23 23 2 11 8 23 14 27 18 11 22 132
5 149 -8 8 -17 22 -21 32 -4 9 -15 20 -24 23 -10 3 -30 12 -45 20 -26 14 -88
18 -118 7z m125 -59 c28 -18 42 -48 48 -101 4 -36 1 -46 -23 -71 -21 -23 -40
-30 -84 -36 l-56 -6 0 121 0 121 47 -7 c25 -4 56 -13 68 -21z"/>
<path d="M6433 1550 c-12 -5 -24 -17 -26 -27 -10 -34 -5 -258 5 -270 7 -8 36
-13 78 -13 77 0 100 6 100 26 0 19 -42 28 -95 21 -47 -7 -53 -2 -51 48 1 29 2
30 59 33 54 3 58 5 55 25 -3 23 -11 24 -73 16 l-30 -4 -3 59 -3 58 53 -6 c40
-5 58 -3 73 8 17 14 18 17 5 26 -18 12 -117 12 -147 0z"/>
<path d="M6652 1548 c-17 -17 -15 -63 3 -78 8 -7 15 -23 15 -36 0 -12 7 -29
15 -38 8 -8 15 -23 15 -33 0 -11 7 -28 15 -39 8 -10 15 -29 15 -40 0 -28 24
-47 50 -39 15 5 20 15 20 38 0 20 8 39 20 50 11 9 20 28 20 43 0 14 7 32 15
40 8 9 15 25 15 37 0 12 7 30 14 40 14 18 11 57 -4 57 -18 0 -60 -63 -60 -89
0 -15 -5 -32 -11 -38 -7 -7 -15 -29 -18 -50 -9 -53 -37 -57 -47 -7 -4 20 -13
49 -20 63 -8 14 -14 34 -14 44 0 9 -4 17 -10 17 -5 0 -10 11 -10 24 0 31 -22
50 -38 34z"/>
<path d="M7003 1553 c-31 -6 -34 -26 -31 -178 l3 -130 68 -3 c76 -3 107 9 85
35 -9 11 -24 13 -59 9 -51 -7 -57 -2 -55 49 1 28 4 30 41 33 60 4 70 9 54 28
-8 10 -25 14 -48 12 l-36 -3 -3 59 -3 58 43 -6 c48 -7 74 4 65 28 -6 16 -66
20 -124 9z"/>
<path d="M7518 1546 c-9 -9 -21 -16 -26 -16 -6 0 -24 -16 -41 -35 -28 -32 -31
-42 -31 -100 0 -62 1 -64 46 -109 43 -44 48 -46 101 -46 52 0 58 3 99 44 30
30 44 52 44 70 0 15 5 36 10 46 7 13 7 21 0 25 -5 3 -10 15 -10 26 0 23 -48
79 -67 79 -6 0 -13 5 -15 11 -6 19 -92 23 -110 5z m103 -53 c32 -14 37 -21 43
-59 13 -98 -16 -144 -92 -144 -40 0 -53 5 -75 28 -22 23 -27 37 -27 80 0 46 4
57 33 86 35 37 51 38 118 9z"/>
<path d="M7848 1553 c-45 -7 -50 -23 -53 -167 -2 -129 -1 -135 19 -140 31 -8
41 8 41 67 0 51 1 52 28 49 32 -3 85 25 93 50 3 10 10 18 15 18 15 0 10 39 -8
68 -38 57 -60 66 -135 55z m57 -39 c57 -15 52 -96 -7 -108 -42 -8 -48 -2 -48
53 0 62 7 68 55 55z"/>
<path d="M8104 1550 c-12 -5 -25 -14 -29 -20 -4 -6 -8 -70 -10 -141 -2 -116
-1 -131 16 -139 28 -15 145 -12 158 4 19 22 -12 38 -66 34 l-48 -3 0 40 c0 40
0 40 43 43 33 3 42 7 42 22 0 15 -9 19 -42 22 l-43 3 0 50 0 50 52 0 c56 0 69
6 60 30 -7 17 -95 21 -133 5z"/>
<path d="M8373 1553 c-54 -5 -55 -9 -51 -178 3 -122 4 -130 23 -130 18 0 20 7
20 60 0 48 3 60 17 63 15 3 68 -60 68 -81 0 -17 40 -49 54 -44 20 8 21 36 1
43 -8 4 -15 12 -15 20 0 7 -9 22 -21 33 l-21 20 36 36 c35 35 46 75 28 100
-15 21 -74 65 -85 63 -7 -1 -31 -3 -54 -5z m69 -53 c38 -29 41 -56 11 -80 -27
-21 -78 -27 -88 -10 -3 5 -3 32 1 60 6 43 10 50 29 50 12 0 34 -9 47 -20z"/>
<path d="M3162 1533 c-5 -10 -12 -77 -16 -149 -6 -130 -6 -132 16 -138 13 -3
27 -1 32 4 5 5 8 52 7 104 -2 108 7 121 39 51 11 -25 24 -45 28 -45 5 0 16
-17 25 -38 9 -21 28 -49 41 -61 45 -42 52 -26 54 119 3 141 -1 170 -23 170
-21 0 -27 -37 -23 -131 2 -59 0 -83 -9 -86 -8 -3 -13 4 -13 16 0 12 -4 21 -9
21 -5 0 -20 20 -32 45 -12 25 -26 45 -30 45 -4 0 -18 20 -30 45 -24 48 -42 56
-57 28z"/>
<path d="M4327 1532 c-17 -18 -17 -75 -2 -174 l4 -26 -24 23 c-14 12 -25 27
-25 34 0 6 -4 11 -8 11 -5 0 -18 19 -30 43 -33 63 -66 100 -88 95 -17 -3 -20
-17 -26 -137 -8 -140 -2 -170 30 -152 13 7 15 27 13 117 l-3 109 21 -19 c12
-11 21 -27 21 -37 0 -10 6 -22 14 -26 7 -4 21 -25 31 -45 9 -21 21 -38 26 -38
5 0 16 -16 24 -36 11 -26 19 -34 31 -30 8 3 20 6 25 6 14 0 7 292 -7 297 -6 2
-18 -5 -27 -15z"/>
<path d="M7216 1534 c-12 -30 -7 -269 6 -282 12 -12 104 -17 132 -6 9 3 16 12
16 19 0 19 -35 28 -76 20 l-34 -6 0 120 c0 126 -4 151 -25 151 -7 0 -16 -7
-19 -16z"/>
</g>
</svg>
